<mxfile host="app.diagrams.net" modified="2022-01-16T11:38:23.350Z" agent="5.0 (Windows NT 10.0; Win64; x64) AppleWebKit/537.36 (KHTML, like Gecko) Chrome/97.0.4692.71 Safari/537.36 Edg/97.0.1072.62" etag="CP-vT1CncC3eSMCx_Nsh" version="16.2.7" type="github">
  <diagram id="unrW2Qa7Q4urZIO5Avpi" name="Page-1">
    <mxGraphModel dx="401" dy="1541" grid="1" gridSize="10" guides="1" tooltips="1" connect="1" arrows="1" fold="1" page="1" pageScale="1" pageWidth="850" pageHeight="1100" math="0" shadow="0">
      <root>
        <mxCell id="0" />
        <mxCell id="1" parent="0" />
        <mxCell id="qAXVTL88hk6OQoD5cI5v-75" value="" style="rounded=0;whiteSpace=wrap;html=1;strokeColor=#FFFFFF;" vertex="1" parent="1">
          <mxGeometry x="35" y="-720" width="1225" height="3910" as="geometry" />
        </mxCell>
        <mxCell id="iY9TOzmqVVtTMpKYVahV-25" style="edgeStyle=orthogonalEdgeStyle;rounded=0;orthogonalLoop=1;jettySize=auto;html=1;exitX=1;exitY=0.5;exitDx=0;exitDy=0;fillColor=#B3B3B3;" parent="1" source="iY9TOzmqVVtTMpKYVahV-1" target="iY9TOzmqVVtTMpKYVahV-2" edge="1">
          <mxGeometry relative="1" as="geometry" />
        </mxCell>
        <mxCell id="iY9TOzmqVVtTMpKYVahV-1" value="Compulsory Envelope" style="shape=parallelogram;html=1;strokeWidth=2;perimeter=parallelogramPerimeter;whiteSpace=wrap;rounded=1;arcSize=12;size=0.23;fillColor=#B3B3B3;" parent="1" vertex="1">
          <mxGeometry x="170" y="-10" width="100" height="40" as="geometry" />
        </mxCell>
        <mxCell id="iY9TOzmqVVtTMpKYVahV-26" style="edgeStyle=orthogonalEdgeStyle;rounded=0;orthogonalLoop=1;jettySize=auto;html=1;exitX=1;exitY=0.5;exitDx=0;exitDy=0;entryX=0;entryY=0.5;entryDx=0;entryDy=0;fillColor=#B3B3B3;" parent="1" source="iY9TOzmqVVtTMpKYVahV-2" target="iY9TOzmqVVtTMpKYVahV-3" edge="1">
          <mxGeometry relative="1" as="geometry" />
        </mxCell>
        <mxCell id="iY9TOzmqVVtTMpKYVahV-2" value="Check for water Thightness" style="rounded=1;whiteSpace=wrap;html=1;absoluteArcSize=1;arcSize=14;strokeWidth=2;fillColor=#B3B3B3;" parent="1" vertex="1">
          <mxGeometry x="290" y="-10" width="100" height="40" as="geometry" />
        </mxCell>
        <mxCell id="iY9TOzmqVVtTMpKYVahV-28" style="edgeStyle=orthogonalEdgeStyle;rounded=0;orthogonalLoop=1;jettySize=auto;html=1;exitX=1;exitY=0.5;exitDx=0;exitDy=0;entryX=0;entryY=0.5;entryDx=0;entryDy=0;fillColor=#B3B3B3;" parent="1" source="iY9TOzmqVVtTMpKYVahV-3" target="iY9TOzmqVVtTMpKYVahV-4" edge="1">
          <mxGeometry relative="1" as="geometry" />
        </mxCell>
        <mxCell id="iY9TOzmqVVtTMpKYVahV-3" value="Voxelize Mesh" style="rounded=1;whiteSpace=wrap;html=1;absoluteArcSize=1;arcSize=14;strokeWidth=2;fillColor=#B3B3B3;" parent="1" vertex="1">
          <mxGeometry x="420" y="-10" width="100" height="40" as="geometry" />
        </mxCell>
        <mxCell id="iY9TOzmqVVtTMpKYVahV-4" value="Voxelized&amp;nbsp;&lt;br&gt;Envelope" style="shape=parallelogram;html=1;strokeWidth=2;perimeter=parallelogramPerimeter;whiteSpace=wrap;rounded=1;arcSize=12;size=0.23;fillColor=#B3B3B3;" parent="1" vertex="1">
          <mxGeometry x="540" y="-10" width="100" height="40" as="geometry" />
        </mxCell>
        <mxCell id="iY9TOzmqVVtTMpKYVahV-27" style="edgeStyle=orthogonalEdgeStyle;rounded=0;orthogonalLoop=1;jettySize=auto;html=1;exitX=0.5;exitY=1;exitDx=0;exitDy=0;entryX=0.5;entryY=0;entryDx=0;entryDy=0;fillColor=#B3B3B3;" parent="1" source="iY9TOzmqVVtTMpKYVahV-5" target="iY9TOzmqVVtTMpKYVahV-3" edge="1">
          <mxGeometry relative="1" as="geometry" />
        </mxCell>
        <mxCell id="iY9TOzmqVVtTMpKYVahV-5" value="Voxel&lt;br&gt;&amp;nbsp;Dimensions" style="shape=parallelogram;html=1;strokeWidth=2;perimeter=parallelogramPerimeter;whiteSpace=wrap;rounded=1;arcSize=12;size=0.23;fillColor=#B3B3B3;" parent="1" vertex="1">
          <mxGeometry x="425" y="-80" width="100" height="40" as="geometry" />
        </mxCell>
        <mxCell id="iY9TOzmqVVtTMpKYVahV-29" style="edgeStyle=orthogonalEdgeStyle;rounded=0;orthogonalLoop=1;jettySize=auto;html=1;exitX=1;exitY=0.5;exitDx=0;exitDy=0;entryX=0;entryY=0.5;entryDx=0;entryDy=0;fillColor=#B3B3B3;" parent="1" source="iY9TOzmqVVtTMpKYVahV-6" target="iY9TOzmqVVtTMpKYVahV-7" edge="1">
          <mxGeometry relative="1" as="geometry" />
        </mxCell>
        <mxCell id="iY9TOzmqVVtTMpKYVahV-6" value="Voxelized Envelope" style="shape=parallelogram;html=1;strokeWidth=2;perimeter=parallelogramPerimeter;whiteSpace=wrap;rounded=1;arcSize=12;size=0.23;fillColor=#B3B3B3;" parent="1" vertex="1">
          <mxGeometry x="170" y="250" width="100" height="40" as="geometry" />
        </mxCell>
        <mxCell id="iY9TOzmqVVtTMpKYVahV-30" style="edgeStyle=orthogonalEdgeStyle;rounded=0;orthogonalLoop=1;jettySize=auto;html=1;exitX=1;exitY=0.5;exitDx=0;exitDy=0;entryX=0;entryY=0.5;entryDx=0;entryDy=0;fillColor=#B3B3B3;" parent="1" source="iY9TOzmqVVtTMpKYVahV-7" target="iY9TOzmqVVtTMpKYVahV-8" edge="1">
          <mxGeometry relative="1" as="geometry" />
        </mxCell>
        <mxCell id="iY9TOzmqVVtTMpKYVahV-7" value="Calculate Border Points" style="rounded=1;whiteSpace=wrap;html=1;absoluteArcSize=1;arcSize=14;strokeWidth=2;fillColor=#B3B3B3;" parent="1" vertex="1">
          <mxGeometry x="290" y="250" width="100" height="40" as="geometry" />
        </mxCell>
        <mxCell id="iY9TOzmqVVtTMpKYVahV-31" style="edgeStyle=orthogonalEdgeStyle;rounded=0;orthogonalLoop=1;jettySize=auto;html=1;exitX=1;exitY=0.5;exitDx=0;exitDy=0;fillColor=#B3B3B3;" parent="1" source="iY9TOzmqVVtTMpKYVahV-8" target="iY9TOzmqVVtTMpKYVahV-9" edge="1">
          <mxGeometry relative="1" as="geometry" />
        </mxCell>
        <mxCell id="iY9TOzmqVVtTMpKYVahV-8" value="Calculating Street Points" style="rounded=1;whiteSpace=wrap;html=1;absoluteArcSize=1;arcSize=14;strokeWidth=2;fillColor=#B3B3B3;" parent="1" vertex="1">
          <mxGeometry x="425" y="250" width="100" height="40" as="geometry" />
        </mxCell>
        <mxCell id="iY9TOzmqVVtTMpKYVahV-9" value="Streetpoints" style="shape=parallelogram;html=1;strokeWidth=2;perimeter=parallelogramPerimeter;whiteSpace=wrap;rounded=1;arcSize=12;size=0.23;fillColor=#B3B3B3;" parent="1" vertex="1">
          <mxGeometry x="550" y="250" width="100" height="40" as="geometry" />
        </mxCell>
        <mxCell id="iY9TOzmqVVtTMpKYVahV-36" style="edgeStyle=orthogonalEdgeStyle;rounded=0;orthogonalLoop=1;jettySize=auto;html=1;exitX=1;exitY=0.5;exitDx=0;exitDy=0;entryX=0;entryY=0.5;entryDx=0;entryDy=0;fillColor=#B3B3B3;" parent="1" source="iY9TOzmqVVtTMpKYVahV-10" target="iY9TOzmqVVtTMpKYVahV-14" edge="1">
          <mxGeometry relative="1" as="geometry">
            <Array as="points">
              <mxPoint x="280" y="510" />
              <mxPoint x="280" y="590" />
            </Array>
          </mxGeometry>
        </mxCell>
        <mxCell id="iY9TOzmqVVtTMpKYVahV-10" value="Compulsory Envelope" style="shape=parallelogram;html=1;strokeWidth=2;perimeter=parallelogramPerimeter;whiteSpace=wrap;rounded=1;arcSize=12;size=0.23;fillColor=#B3B3B3;" parent="1" vertex="1">
          <mxGeometry x="155" y="490" width="100" height="40" as="geometry" />
        </mxCell>
        <mxCell id="iY9TOzmqVVtTMpKYVahV-37" style="edgeStyle=orthogonalEdgeStyle;rounded=0;orthogonalLoop=1;jettySize=auto;html=1;exitX=1;exitY=0.5;exitDx=0;exitDy=0;entryX=0;entryY=0.5;entryDx=0;entryDy=0;fillColor=#B3B3B3;" parent="1" source="iY9TOzmqVVtTMpKYVahV-11" target="iY9TOzmqVVtTMpKYVahV-14" edge="1">
          <mxGeometry relative="1" as="geometry">
            <Array as="points">
              <mxPoint x="280" y="560" />
              <mxPoint x="280" y="590" />
            </Array>
          </mxGeometry>
        </mxCell>
        <mxCell id="iY9TOzmqVVtTMpKYVahV-11" value="Immediate Context" style="shape=parallelogram;html=1;strokeWidth=2;perimeter=parallelogramPerimeter;whiteSpace=wrap;rounded=1;arcSize=12;size=0.23;fillColor=#B3B3B3;" parent="1" vertex="1">
          <mxGeometry x="155" y="540" width="100" height="40" as="geometry" />
        </mxCell>
        <mxCell id="iY9TOzmqVVtTMpKYVahV-38" style="edgeStyle=orthogonalEdgeStyle;rounded=0;orthogonalLoop=1;jettySize=auto;html=1;exitX=1;exitY=0.5;exitDx=0;exitDy=0;fillColor=#B3B3B3;" parent="1" source="iY9TOzmqVVtTMpKYVahV-12" target="iY9TOzmqVVtTMpKYVahV-14" edge="1">
          <mxGeometry relative="1" as="geometry">
            <Array as="points">
              <mxPoint x="280" y="610" />
              <mxPoint x="280" y="590" />
            </Array>
          </mxGeometry>
        </mxCell>
        <mxCell id="iY9TOzmqVVtTMpKYVahV-12" value="Voxelized Envelope" style="shape=parallelogram;html=1;strokeWidth=2;perimeter=parallelogramPerimeter;whiteSpace=wrap;rounded=1;arcSize=12;size=0.23;fillColor=#B3B3B3;" parent="1" vertex="1">
          <mxGeometry x="155" y="590" width="100" height="40" as="geometry" />
        </mxCell>
        <mxCell id="iY9TOzmqVVtTMpKYVahV-39" style="edgeStyle=orthogonalEdgeStyle;rounded=0;orthogonalLoop=1;jettySize=auto;html=1;exitX=1;exitY=0.5;exitDx=0;exitDy=0;entryX=0;entryY=0.5;entryDx=0;entryDy=0;fillColor=#B3B3B3;" parent="1" source="iY9TOzmqVVtTMpKYVahV-13" target="iY9TOzmqVVtTMpKYVahV-14" edge="1">
          <mxGeometry relative="1" as="geometry">
            <Array as="points">
              <mxPoint x="280" y="660" />
              <mxPoint x="280" y="590" />
            </Array>
          </mxGeometry>
        </mxCell>
        <mxCell id="iY9TOzmqVVtTMpKYVahV-13" value="Football Field Points" style="shape=parallelogram;html=1;strokeWidth=2;perimeter=parallelogramPerimeter;whiteSpace=wrap;rounded=1;arcSize=12;size=0.23;fillColor=#B3B3B3;" parent="1" vertex="1">
          <mxGeometry x="150" y="640" width="100" height="40" as="geometry" />
        </mxCell>
        <mxCell id="iY9TOzmqVVtTMpKYVahV-155" style="edgeStyle=orthogonalEdgeStyle;rounded=0;orthogonalLoop=1;jettySize=auto;html=1;exitX=1;exitY=0.5;exitDx=0;exitDy=0;entryX=-0.031;entryY=0.501;entryDx=0;entryDy=0;entryPerimeter=0;fillColor=#B3B3B3;" parent="1" source="iY9TOzmqVVtTMpKYVahV-14" target="iY9TOzmqVVtTMpKYVahV-154" edge="1">
          <mxGeometry relative="1" as="geometry" />
        </mxCell>
        <mxCell id="iY9TOzmqVVtTMpKYVahV-14" value="Calculate Euclidean Distance" style="rounded=1;whiteSpace=wrap;html=1;absoluteArcSize=1;arcSize=14;strokeWidth=2;fillColor=#B3B3B3;" parent="1" vertex="1">
          <mxGeometry x="310" y="560" width="100" height="60" as="geometry" />
        </mxCell>
        <mxCell id="iY9TOzmqVVtTMpKYVahV-33" style="edgeStyle=orthogonalEdgeStyle;rounded=0;orthogonalLoop=1;jettySize=auto;html=1;exitX=1;exitY=0.5;exitDx=0;exitDy=0;entryX=0;entryY=0.5;entryDx=0;entryDy=0;fillColor=#B3B3B3;" parent="1" source="iY9TOzmqVVtTMpKYVahV-20" target="iY9TOzmqVVtTMpKYVahV-22" edge="1">
          <mxGeometry relative="1" as="geometry" />
        </mxCell>
        <mxCell id="iY9TOzmqVVtTMpKYVahV-20" value="Intializing the Manifold Distance Lattice" style="rounded=1;whiteSpace=wrap;html=1;absoluteArcSize=1;arcSize=14;strokeWidth=2;fillColor=#B3B3B3;" parent="1" vertex="1">
          <mxGeometry x="575" y="560" width="100" height="60" as="geometry" />
        </mxCell>
        <mxCell id="iY9TOzmqVVtTMpKYVahV-32" style="edgeStyle=orthogonalEdgeStyle;rounded=0;orthogonalLoop=1;jettySize=auto;html=1;exitX=0.5;exitY=0;exitDx=0;exitDy=0;entryX=0.5;entryY=1;entryDx=0;entryDy=0;fillColor=#B3B3B3;" parent="1" source="iY9TOzmqVVtTMpKYVahV-21" target="iY9TOzmqVVtTMpKYVahV-20" edge="1">
          <mxGeometry relative="1" as="geometry" />
        </mxCell>
        <mxCell id="iY9TOzmqVVtTMpKYVahV-21" value="Von&lt;br&gt;&amp;nbsp;Neumann&amp;nbsp;&lt;br&gt;Stensil" style="shape=parallelogram;html=1;strokeWidth=2;perimeter=parallelogramPerimeter;whiteSpace=wrap;rounded=1;arcSize=12;size=0.23;fillColor=#B3B3B3;" parent="1" vertex="1">
          <mxGeometry x="575" y="640" width="100" height="60" as="geometry" />
        </mxCell>
        <mxCell id="qAXVTL88hk6OQoD5cI5v-46" style="edgeStyle=orthogonalEdgeStyle;rounded=0;orthogonalLoop=1;jettySize=auto;html=1;exitX=1;exitY=0.5;exitDx=0;exitDy=0;entryX=0;entryY=0.5;entryDx=0;entryDy=0;" edge="1" parent="1" source="iY9TOzmqVVtTMpKYVahV-22" target="iY9TOzmqVVtTMpKYVahV-24">
          <mxGeometry relative="1" as="geometry" />
        </mxCell>
        <mxCell id="iY9TOzmqVVtTMpKYVahV-22" value="Breadth-First Traversal" style="rounded=1;whiteSpace=wrap;html=1;absoluteArcSize=1;arcSize=14;strokeWidth=2;fillColor=#B3B3B3;" parent="1" vertex="1">
          <mxGeometry x="710" y="565" width="100" height="50" as="geometry" />
        </mxCell>
        <mxCell id="iY9TOzmqVVtTMpKYVahV-24" value="Football Field" style="shape=parallelogram;html=1;strokeWidth=2;perimeter=parallelogramPerimeter;whiteSpace=wrap;rounded=1;arcSize=12;size=0.23;fillColor=#B3B3B3;" parent="1" vertex="1">
          <mxGeometry x="840" y="570" width="100" height="40" as="geometry" />
        </mxCell>
        <mxCell id="qAXVTL88hk6OQoD5cI5v-48" style="edgeStyle=orthogonalEdgeStyle;rounded=0;orthogonalLoop=1;jettySize=auto;html=1;exitX=1;exitY=0.5;exitDx=0;exitDy=0;entryX=0;entryY=0.5;entryDx=0;entryDy=0;" edge="1" parent="1" source="iY9TOzmqVVtTMpKYVahV-41" target="iY9TOzmqVVtTMpKYVahV-44">
          <mxGeometry relative="1" as="geometry" />
        </mxCell>
        <mxCell id="iY9TOzmqVVtTMpKYVahV-41" value="Voxelized Envelope" style="shape=parallelogram;html=1;strokeWidth=2;perimeter=parallelogramPerimeter;whiteSpace=wrap;rounded=1;arcSize=12;size=0.23;fillColor=#B3B3B3;" parent="1" vertex="1">
          <mxGeometry x="160" y="1080" width="100" height="40" as="geometry" />
        </mxCell>
        <mxCell id="iY9TOzmqVVtTMpKYVahV-66" style="edgeStyle=orthogonalEdgeStyle;rounded=0;orthogonalLoop=1;jettySize=auto;html=1;exitX=1;exitY=0.5;exitDx=0;exitDy=0;entryX=0;entryY=0.5;entryDx=0;entryDy=0;fillColor=#B3B3B3;" parent="1" source="iY9TOzmqVVtTMpKYVahV-42" target="iY9TOzmqVVtTMpKYVahV-44" edge="1">
          <mxGeometry relative="1" as="geometry" />
        </mxCell>
        <mxCell id="iY9TOzmqVVtTMpKYVahV-42" value="Immediate Context" style="shape=parallelogram;html=1;strokeWidth=2;perimeter=parallelogramPerimeter;whiteSpace=wrap;rounded=1;arcSize=12;size=0.23;fillColor=#B3B3B3;" parent="1" vertex="1">
          <mxGeometry x="160" y="1030" width="100" height="40" as="geometry" />
        </mxCell>
        <mxCell id="qAXVTL88hk6OQoD5cI5v-47" style="edgeStyle=orthogonalEdgeStyle;rounded=0;orthogonalLoop=1;jettySize=auto;html=1;exitX=1;exitY=0.5;exitDx=0;exitDy=0;" edge="1" parent="1" source="iY9TOzmqVVtTMpKYVahV-43" target="iY9TOzmqVVtTMpKYVahV-44">
          <mxGeometry relative="1" as="geometry" />
        </mxCell>
        <mxCell id="iY9TOzmqVVtTMpKYVahV-43" value="Compulsory Envelope" style="shape=parallelogram;html=1;strokeWidth=2;perimeter=parallelogramPerimeter;whiteSpace=wrap;rounded=1;arcSize=12;size=0.23;fillColor=#B3B3B3;" parent="1" vertex="1">
          <mxGeometry x="160" y="980" width="100" height="40" as="geometry" />
        </mxCell>
        <mxCell id="qAXVTL88hk6OQoD5cI5v-49" style="edgeStyle=orthogonalEdgeStyle;rounded=0;orthogonalLoop=1;jettySize=auto;html=1;exitX=1;exitY=0.5;exitDx=0;exitDy=0;" edge="1" parent="1" source="iY9TOzmqVVtTMpKYVahV-44" target="iY9TOzmqVVtTMpKYVahV-45">
          <mxGeometry relative="1" as="geometry" />
        </mxCell>
        <mxCell id="iY9TOzmqVVtTMpKYVahV-44" value="Calculate Ground Proximity" style="rounded=1;whiteSpace=wrap;html=1;absoluteArcSize=1;arcSize=14;strokeWidth=2;fillColor=#B3B3B3;" parent="1" vertex="1">
          <mxGeometry x="325" y="1020" width="100" height="60" as="geometry" />
        </mxCell>
        <mxCell id="iY9TOzmqVVtTMpKYVahV-45" value="Proximity to Ground Floor" style="shape=parallelogram;html=1;strokeWidth=2;perimeter=parallelogramPerimeter;whiteSpace=wrap;rounded=1;arcSize=12;size=0.23;fillColor=#B3B3B3;" parent="1" vertex="1">
          <mxGeometry x="450" y="1030" width="100" height="40" as="geometry" />
        </mxCell>
        <mxCell id="iY9TOzmqVVtTMpKYVahV-77" style="edgeStyle=orthogonalEdgeStyle;rounded=0;orthogonalLoop=1;jettySize=auto;html=1;exitX=1;exitY=0.5;exitDx=0;exitDy=0;entryX=0;entryY=0.5;entryDx=0;entryDy=0;fillColor=#B3B3B3;" parent="1" target="iY9TOzmqVVtTMpKYVahV-50" edge="1">
          <mxGeometry relative="1" as="geometry">
            <mxPoint x="410" y="1320" as="sourcePoint" />
          </mxGeometry>
        </mxCell>
        <mxCell id="iY9TOzmqVVtTMpKYVahV-50" value="Penthouse &lt;br&gt;Factor" style="shape=parallelogram;html=1;strokeWidth=2;perimeter=parallelogramPerimeter;whiteSpace=wrap;rounded=1;arcSize=12;size=0.23;fillColor=#B3B3B3;" parent="1" vertex="1">
          <mxGeometry x="425" y="1300" width="100" height="40" as="geometry" />
        </mxCell>
        <mxCell id="iY9TOzmqVVtTMpKYVahV-76" style="edgeStyle=orthogonalEdgeStyle;rounded=0;orthogonalLoop=1;jettySize=auto;html=1;exitX=1;exitY=0.5;exitDx=0;exitDy=0;fillColor=#B3B3B3;" parent="1" source="iY9TOzmqVVtTMpKYVahV-51" target="iY9TOzmqVVtTMpKYVahV-54" edge="1">
          <mxGeometry relative="1" as="geometry" />
        </mxCell>
        <mxCell id="iY9TOzmqVVtTMpKYVahV-51" value="Immediate Context" style="shape=parallelogram;html=1;strokeWidth=2;perimeter=parallelogramPerimeter;whiteSpace=wrap;rounded=1;arcSize=12;size=0.23;fillColor=#B3B3B3;" parent="1" vertex="1">
          <mxGeometry x="110" y="1690" width="100" height="40" as="geometry" />
        </mxCell>
        <mxCell id="qAXVTL88hk6OQoD5cI5v-51" style="edgeStyle=orthogonalEdgeStyle;rounded=0;orthogonalLoop=1;jettySize=auto;html=1;exitX=1;exitY=0.5;exitDx=0;exitDy=0;entryX=0;entryY=0.5;entryDx=0;entryDy=0;" edge="1" parent="1" source="iY9TOzmqVVtTMpKYVahV-52" target="iY9TOzmqVVtTMpKYVahV-54">
          <mxGeometry relative="1" as="geometry" />
        </mxCell>
        <mxCell id="iY9TOzmqVVtTMpKYVahV-52" value="Voxelized Envelope" style="shape=parallelogram;html=1;strokeWidth=2;perimeter=parallelogramPerimeter;whiteSpace=wrap;rounded=1;arcSize=12;size=0.23;fillColor=#B3B3B3;" parent="1" vertex="1">
          <mxGeometry x="110" y="1640" width="100" height="40" as="geometry" />
        </mxCell>
        <mxCell id="qAXVTL88hk6OQoD5cI5v-52" style="edgeStyle=orthogonalEdgeStyle;rounded=0;orthogonalLoop=1;jettySize=auto;html=1;exitX=0.5;exitY=1;exitDx=0;exitDy=0;entryX=0.5;entryY=0;entryDx=0;entryDy=0;" edge="1" parent="1" source="iY9TOzmqVVtTMpKYVahV-53" target="qAXVTL88hk6OQoD5cI5v-1">
          <mxGeometry relative="1" as="geometry" />
        </mxCell>
        <mxCell id="iY9TOzmqVVtTMpKYVahV-53" value="Street Points" style="shape=parallelogram;html=1;strokeWidth=2;perimeter=parallelogramPerimeter;whiteSpace=wrap;rounded=1;arcSize=12;size=0.23;fillColor=#B3B3B3;" parent="1" vertex="1">
          <mxGeometry x="460" y="1560" width="100" height="40" as="geometry" />
        </mxCell>
        <mxCell id="iY9TOzmqVVtTMpKYVahV-56" style="edgeStyle=orthogonalEdgeStyle;rounded=0;orthogonalLoop=1;jettySize=auto;html=1;exitX=0.5;exitY=1;exitDx=0;exitDy=0;entryX=0.5;entryY=0;entryDx=0;entryDy=0;fillColor=#B3B3B3;" parent="1" source="iY9TOzmqVVtTMpKYVahV-54" target="iY9TOzmqVVtTMpKYVahV-55" edge="1">
          <mxGeometry relative="1" as="geometry" />
        </mxCell>
        <mxCell id="qAXVTL88hk6OQoD5cI5v-7" style="edgeStyle=orthogonalEdgeStyle;rounded=0;orthogonalLoop=1;jettySize=auto;html=1;exitX=1;exitY=0.5;exitDx=0;exitDy=0;" edge="1" parent="1" source="iY9TOzmqVVtTMpKYVahV-54" target="qAXVTL88hk6OQoD5cI5v-1">
          <mxGeometry relative="1" as="geometry" />
        </mxCell>
        <mxCell id="qAXVTL88hk6OQoD5cI5v-8" style="edgeStyle=orthogonalEdgeStyle;rounded=0;orthogonalLoop=1;jettySize=auto;html=1;exitX=1;exitY=0.5;exitDx=0;exitDy=0;" edge="1" parent="1" source="iY9TOzmqVVtTMpKYVahV-54" target="qAXVTL88hk6OQoD5cI5v-3">
          <mxGeometry relative="1" as="geometry" />
        </mxCell>
        <mxCell id="iY9TOzmqVVtTMpKYVahV-54" value="Calculate Euclidean Distance" style="rounded=1;whiteSpace=wrap;html=1;absoluteArcSize=1;arcSize=14;strokeWidth=2;fillColor=#B3B3B3;" parent="1" vertex="1">
          <mxGeometry x="280" y="1660" width="100" height="50" as="geometry" />
        </mxCell>
        <mxCell id="iY9TOzmqVVtTMpKYVahV-55" value="Euclidean Distance" style="shape=parallelogram;html=1;strokeWidth=2;perimeter=parallelogramPerimeter;whiteSpace=wrap;rounded=1;arcSize=12;size=0.23;fillColor=#B3B3B3;" parent="1" vertex="1">
          <mxGeometry x="280" y="1730" width="100" height="40" as="geometry" />
        </mxCell>
        <mxCell id="iY9TOzmqVVtTMpKYVahV-69" style="edgeStyle=orthogonalEdgeStyle;rounded=0;orthogonalLoop=1;jettySize=auto;html=1;exitX=1;exitY=0.5;exitDx=0;exitDy=0;entryX=0;entryY=0.5;entryDx=0;entryDy=0;fillColor=#B3B3B3;" parent="1" source="iY9TOzmqVVtTMpKYVahV-58" target="iY9TOzmqVVtTMpKYVahV-61" edge="1">
          <mxGeometry relative="1" as="geometry" />
        </mxCell>
        <mxCell id="iY9TOzmqVVtTMpKYVahV-58" value="chose Between Street and Football" style="rounded=1;whiteSpace=wrap;html=1;absoluteArcSize=1;arcSize=14;strokeWidth=2;fillColor=#B3B3B3;" parent="1" vertex="1">
          <mxGeometry x="600" y="1660" width="100" height="50" as="geometry" />
        </mxCell>
        <mxCell id="iY9TOzmqVVtTMpKYVahV-70" style="edgeStyle=orthogonalEdgeStyle;rounded=0;orthogonalLoop=1;jettySize=auto;html=1;exitX=1;exitY=0.5;exitDx=0;exitDy=0;fillColor=#B3B3B3;entryX=0;entryY=0.5;entryDx=0;entryDy=0;" parent="1" source="iY9TOzmqVVtTMpKYVahV-61" target="iY9TOzmqVVtTMpKYVahV-64" edge="1">
          <mxGeometry relative="1" as="geometry">
            <mxPoint x="1035" y="1670" as="targetPoint" />
          </mxGeometry>
        </mxCell>
        <mxCell id="iY9TOzmqVVtTMpKYVahV-61" value="Normalise and Inverse Relative Loudness" style="rounded=1;whiteSpace=wrap;html=1;absoluteArcSize=1;arcSize=14;strokeWidth=2;fillColor=#B3B3B3;" parent="1" vertex="1">
          <mxGeometry x="730" y="1660" width="100" height="50" as="geometry" />
        </mxCell>
        <mxCell id="iY9TOzmqVVtTMpKYVahV-64" value="Noise &lt;br&gt;Approval" style="shape=parallelogram;html=1;strokeWidth=2;perimeter=parallelogramPerimeter;whiteSpace=wrap;rounded=1;arcSize=12;size=0.23;fillColor=#B3B3B3;" parent="1" vertex="1">
          <mxGeometry x="850" y="1662.5" width="100" height="45" as="geometry" />
        </mxCell>
        <mxCell id="iY9TOzmqVVtTMpKYVahV-81" value="Loudness/ Noise" style="rounded=1;whiteSpace=wrap;html=1;fillColor=#B3B3B3;" parent="1" vertex="1">
          <mxGeometry x="625" y="1430" width="120" height="60" as="geometry" />
        </mxCell>
        <mxCell id="iY9TOzmqVVtTMpKYVahV-82" value="Voxelization" style="rounded=1;whiteSpace=wrap;html=1;fillColor=#B3B3B3;" parent="1" vertex="1">
          <mxGeometry x="510" y="-220" width="120" height="60" as="geometry" />
        </mxCell>
        <mxCell id="iY9TOzmqVVtTMpKYVahV-83" value="Street Point creation" style="rounded=1;whiteSpace=wrap;html=1;fillColor=#B3B3B3;" parent="1" vertex="1">
          <mxGeometry x="510" y="140" width="120" height="60" as="geometry" />
        </mxCell>
        <mxCell id="iY9TOzmqVVtTMpKYVahV-84" value="Football field" style="rounded=1;whiteSpace=wrap;html=1;fillColor=#B3B3B3;" parent="1" vertex="1">
          <mxGeometry x="510" y="370" width="120" height="60" as="geometry" />
        </mxCell>
        <mxCell id="iY9TOzmqVVtTMpKYVahV-85" value="Ground Proximity" style="rounded=1;whiteSpace=wrap;html=1;fillColor=#B3B3B3;" parent="1" vertex="1">
          <mxGeometry x="305" y="850" width="120" height="60" as="geometry" />
        </mxCell>
        <mxCell id="iY9TOzmqVVtTMpKYVahV-86" value="Penthouse factor" style="rounded=1;whiteSpace=wrap;html=1;fillColor=#B3B3B3;" parent="1" vertex="1">
          <mxGeometry x="510" y="1160" width="120" height="60" as="geometry" />
        </mxCell>
        <mxCell id="iY9TOzmqVVtTMpKYVahV-87" value="Sun Access" style="rounded=1;whiteSpace=wrap;html=1;fillColor=#B3B3B3;" parent="1" vertex="1">
          <mxGeometry x="430" y="1830" width="120" height="60" as="geometry" />
        </mxCell>
        <mxCell id="iY9TOzmqVVtTMpKYVahV-88" value="Shadow blocking" style="rounded=1;whiteSpace=wrap;html=1;fillColor=#B3B3B3;" parent="1" vertex="1">
          <mxGeometry x="495" y="2150" width="120" height="60" as="geometry" />
        </mxCell>
        <mxCell id="iY9TOzmqVVtTMpKYVahV-89" value="Shadowing" style="rounded=1;whiteSpace=wrap;html=1;fillColor=#B3B3B3;" parent="1" vertex="1">
          <mxGeometry x="290" y="2450" width="120" height="60" as="geometry" />
        </mxCell>
        <mxCell id="iY9TOzmqVVtTMpKYVahV-90" value="Skyview factor" style="rounded=1;whiteSpace=wrap;html=1;fillColor=#B3B3B3;" parent="1" vertex="1">
          <mxGeometry x="590" y="2740" width="120" height="60" as="geometry" />
        </mxCell>
        <mxCell id="iY9TOzmqVVtTMpKYVahV-151" style="edgeStyle=orthogonalEdgeStyle;rounded=0;orthogonalLoop=1;jettySize=auto;html=1;exitX=1;exitY=0.5;exitDx=0;exitDy=0;entryX=0;entryY=0.5;entryDx=0;entryDy=0;fillColor=#B3B3B3;" parent="1" source="iY9TOzmqVVtTMpKYVahV-91" target="iY9TOzmqVVtTMpKYVahV-94" edge="1">
          <mxGeometry relative="1" as="geometry" />
        </mxCell>
        <mxCell id="iY9TOzmqVVtTMpKYVahV-91" value="Voxelized Envelope" style="shape=parallelogram;html=1;strokeWidth=2;perimeter=parallelogramPerimeter;whiteSpace=wrap;rounded=1;arcSize=12;size=0.23;fillColor=#B3B3B3;" parent="1" vertex="1">
          <mxGeometry x="155" y="2060" width="100" height="40" as="geometry" />
        </mxCell>
        <mxCell id="iY9TOzmqVVtTMpKYVahV-150" style="edgeStyle=orthogonalEdgeStyle;rounded=0;orthogonalLoop=1;jettySize=auto;html=1;exitX=1;exitY=0.5;exitDx=0;exitDy=0;entryX=0;entryY=0.5;entryDx=0;entryDy=0;fillColor=#B3B3B3;" parent="1" source="iY9TOzmqVVtTMpKYVahV-92" target="iY9TOzmqVVtTMpKYVahV-94" edge="1">
          <mxGeometry relative="1" as="geometry" />
        </mxCell>
        <mxCell id="iY9TOzmqVVtTMpKYVahV-92" value="Immediate Context" style="shape=parallelogram;html=1;strokeWidth=2;perimeter=parallelogramPerimeter;whiteSpace=wrap;rounded=1;arcSize=12;size=0.23;fillColor=#B3B3B3;" parent="1" vertex="1">
          <mxGeometry x="155" y="2010" width="100" height="40" as="geometry" />
        </mxCell>
        <mxCell id="iY9TOzmqVVtTMpKYVahV-149" style="edgeStyle=orthogonalEdgeStyle;rounded=0;orthogonalLoop=1;jettySize=auto;html=1;exitX=1;exitY=0.5;exitDx=0;exitDy=0;entryX=0;entryY=0.5;entryDx=0;entryDy=0;fillColor=#B3B3B3;" parent="1" source="iY9TOzmqVVtTMpKYVahV-93" target="iY9TOzmqVVtTMpKYVahV-94" edge="1">
          <mxGeometry relative="1" as="geometry" />
        </mxCell>
        <mxCell id="iY9TOzmqVVtTMpKYVahV-93" value="Compulsory Envelope" style="shape=parallelogram;html=1;strokeWidth=2;perimeter=parallelogramPerimeter;whiteSpace=wrap;rounded=1;arcSize=12;size=0.23;fillColor=#B3B3B3;" parent="1" vertex="1">
          <mxGeometry x="155" y="1960" width="100" height="40" as="geometry" />
        </mxCell>
        <mxCell id="iY9TOzmqVVtTMpKYVahV-143" style="edgeStyle=orthogonalEdgeStyle;rounded=0;orthogonalLoop=1;jettySize=auto;html=1;exitX=1;exitY=0.5;exitDx=0;exitDy=0;entryX=0;entryY=0.5;entryDx=0;entryDy=0;fillColor=#B3B3B3;" parent="1" source="iY9TOzmqVVtTMpKYVahV-94" target="iY9TOzmqVVtTMpKYVahV-95" edge="1">
          <mxGeometry relative="1" as="geometry" />
        </mxCell>
        <mxCell id="iY9TOzmqVVtTMpKYVahV-94" value="Compute Sun Vectors" style="rounded=1;whiteSpace=wrap;html=1;absoluteArcSize=1;arcSize=14;strokeWidth=2;fillColor=#B3B3B3;" parent="1" vertex="1">
          <mxGeometry x="300" y="2005" width="100" height="50" as="geometry" />
        </mxCell>
        <mxCell id="iY9TOzmqVVtTMpKYVahV-144" style="edgeStyle=orthogonalEdgeStyle;rounded=0;orthogonalLoop=1;jettySize=auto;html=1;exitX=1;exitY=0.5;exitDx=0;exitDy=0;entryX=0;entryY=0.5;entryDx=0;entryDy=0;fillColor=#B3B3B3;" parent="1" source="iY9TOzmqVVtTMpKYVahV-95" target="iY9TOzmqVVtTMpKYVahV-96" edge="1">
          <mxGeometry relative="1" as="geometry" />
        </mxCell>
        <mxCell id="iY9TOzmqVVtTMpKYVahV-95" value="Compute Intersections" style="rounded=1;whiteSpace=wrap;html=1;absoluteArcSize=1;arcSize=14;strokeWidth=2;fillColor=#B3B3B3;" parent="1" vertex="1">
          <mxGeometry x="430" y="2005" width="100" height="50" as="geometry" />
        </mxCell>
        <mxCell id="iY9TOzmqVVtTMpKYVahV-145" style="edgeStyle=orthogonalEdgeStyle;rounded=0;orthogonalLoop=1;jettySize=auto;html=1;exitX=1;exitY=0.5;exitDx=0;exitDy=0;entryX=0;entryY=0.5;entryDx=0;entryDy=0;fillColor=#B3B3B3;" parent="1" source="iY9TOzmqVVtTMpKYVahV-96" target="iY9TOzmqVVtTMpKYVahV-97" edge="1">
          <mxGeometry relative="1" as="geometry" />
        </mxCell>
        <mxCell id="iY9TOzmqVVtTMpKYVahV-96" value="Aggregate Simulations Results" style="rounded=1;whiteSpace=wrap;html=1;absoluteArcSize=1;arcSize=14;strokeWidth=2;fillColor=#B3B3B3;" parent="1" vertex="1">
          <mxGeometry x="560" y="2005" width="100" height="50" as="geometry" />
        </mxCell>
        <mxCell id="qAXVTL88hk6OQoD5cI5v-54" style="edgeStyle=orthogonalEdgeStyle;rounded=0;orthogonalLoop=1;jettySize=auto;html=1;exitX=1;exitY=0.5;exitDx=0;exitDy=0;entryX=0;entryY=0.5;entryDx=0;entryDy=0;" edge="1" parent="1" source="iY9TOzmqVVtTMpKYVahV-97" target="iY9TOzmqVVtTMpKYVahV-100">
          <mxGeometry relative="1" as="geometry" />
        </mxCell>
        <mxCell id="iY9TOzmqVVtTMpKYVahV-97" value="Interpolate Sun in High Resolution" style="rounded=1;whiteSpace=wrap;html=1;absoluteArcSize=1;arcSize=14;strokeWidth=2;fillColor=#B3B3B3;" parent="1" vertex="1">
          <mxGeometry x="690" y="2005" width="100" height="50" as="geometry" />
        </mxCell>
        <mxCell id="iY9TOzmqVVtTMpKYVahV-100" value="Sunlight &lt;br&gt;Access" style="shape=parallelogram;html=1;strokeWidth=2;perimeter=parallelogramPerimeter;whiteSpace=wrap;rounded=1;arcSize=12;size=0.23;fillColor=#B3B3B3;" parent="1" vertex="1">
          <mxGeometry x="815" y="2005" width="100" height="50" as="geometry" />
        </mxCell>
        <mxCell id="qAXVTL88hk6OQoD5cI5v-66" style="edgeStyle=orthogonalEdgeStyle;rounded=0;orthogonalLoop=1;jettySize=auto;html=1;exitX=1;exitY=0.5;exitDx=0;exitDy=0;entryX=0;entryY=0.5;entryDx=0;entryDy=0;" edge="1" parent="1" source="iY9TOzmqVVtTMpKYVahV-111" target="iY9TOzmqVVtTMpKYVahV-115">
          <mxGeometry relative="1" as="geometry">
            <Array as="points">
              <mxPoint x="290" y="2670" />
              <mxPoint x="290" y="2650" />
            </Array>
          </mxGeometry>
        </mxCell>
        <mxCell id="iY9TOzmqVVtTMpKYVahV-111" value="Compulsory Envelope" style="shape=parallelogram;html=1;strokeWidth=2;perimeter=parallelogramPerimeter;whiteSpace=wrap;rounded=1;arcSize=12;size=0.23;fillColor=#B3B3B3;" parent="1" vertex="1">
          <mxGeometry x="150" y="2650" width="100" height="40" as="geometry" />
        </mxCell>
        <mxCell id="qAXVTL88hk6OQoD5cI5v-65" style="edgeStyle=orthogonalEdgeStyle;rounded=0;orthogonalLoop=1;jettySize=auto;html=1;exitX=1;exitY=0.5;exitDx=0;exitDy=0;" edge="1" parent="1" source="iY9TOzmqVVtTMpKYVahV-112" target="iY9TOzmqVVtTMpKYVahV-115">
          <mxGeometry relative="1" as="geometry">
            <Array as="points">
              <mxPoint x="290" y="2620" />
              <mxPoint x="290" y="2650" />
            </Array>
          </mxGeometry>
        </mxCell>
        <mxCell id="iY9TOzmqVVtTMpKYVahV-112" value="Voxelized Envelope" style="shape=parallelogram;html=1;strokeWidth=2;perimeter=parallelogramPerimeter;whiteSpace=wrap;rounded=1;arcSize=12;size=0.23;fillColor=#B3B3B3;" parent="1" vertex="1">
          <mxGeometry x="150" y="2600" width="100" height="40" as="geometry" />
        </mxCell>
        <mxCell id="qAXVTL88hk6OQoD5cI5v-64" style="edgeStyle=orthogonalEdgeStyle;rounded=0;orthogonalLoop=1;jettySize=auto;html=1;exitX=1;exitY=0.5;exitDx=0;exitDy=0;entryX=0;entryY=0.5;entryDx=0;entryDy=0;" edge="1" parent="1" source="iY9TOzmqVVtTMpKYVahV-113" target="iY9TOzmqVVtTMpKYVahV-115">
          <mxGeometry relative="1" as="geometry">
            <Array as="points">
              <mxPoint x="290" y="2570" />
              <mxPoint x="290" y="2650" />
            </Array>
          </mxGeometry>
        </mxCell>
        <mxCell id="iY9TOzmqVVtTMpKYVahV-113" value="Shadowing" style="shape=parallelogram;html=1;strokeWidth=2;perimeter=parallelogramPerimeter;whiteSpace=wrap;rounded=1;arcSize=12;size=0.23;fillColor=#B3B3B3;" parent="1" vertex="1">
          <mxGeometry x="155" y="2550" width="100" height="40" as="geometry" />
        </mxCell>
        <mxCell id="qAXVTL88hk6OQoD5cI5v-67" style="edgeStyle=orthogonalEdgeStyle;rounded=0;orthogonalLoop=1;jettySize=auto;html=1;exitX=1;exitY=0.5;exitDx=0;exitDy=0;entryX=0;entryY=0.5;entryDx=0;entryDy=0;" edge="1" parent="1" source="iY9TOzmqVVtTMpKYVahV-114" target="iY9TOzmqVVtTMpKYVahV-115">
          <mxGeometry relative="1" as="geometry">
            <Array as="points">
              <mxPoint x="290" y="2720" />
              <mxPoint x="290" y="2650" />
            </Array>
          </mxGeometry>
        </mxCell>
        <mxCell id="iY9TOzmqVVtTMpKYVahV-114" value="Immediate Context" style="shape=parallelogram;html=1;strokeWidth=2;perimeter=parallelogramPerimeter;whiteSpace=wrap;rounded=1;arcSize=12;size=0.23;fillColor=#B3B3B3;" parent="1" vertex="1">
          <mxGeometry x="150" y="2700" width="100" height="40" as="geometry" />
        </mxCell>
        <mxCell id="iY9TOzmqVVtTMpKYVahV-122" style="edgeStyle=orthogonalEdgeStyle;rounded=0;orthogonalLoop=1;jettySize=auto;html=1;exitX=1;exitY=0.5;exitDx=0;exitDy=0;entryX=0;entryY=0.5;entryDx=0;entryDy=0;fillColor=#B3B3B3;" parent="1" source="iY9TOzmqVVtTMpKYVahV-115" target="iY9TOzmqVVtTMpKYVahV-117" edge="1">
          <mxGeometry relative="1" as="geometry" />
        </mxCell>
        <mxCell id="iY9TOzmqVVtTMpKYVahV-115" value="Remove Results in Shadow Lattice" style="rounded=1;whiteSpace=wrap;html=1;absoluteArcSize=1;arcSize=14;strokeWidth=2;fillColor=#B3B3B3;" parent="1" vertex="1">
          <mxGeometry x="325" y="2625" width="100" height="50" as="geometry" />
        </mxCell>
        <mxCell id="iY9TOzmqVVtTMpKYVahV-117" value="Usable Lattice" style="shape=parallelogram;html=1;strokeWidth=2;perimeter=parallelogramPerimeter;whiteSpace=wrap;rounded=1;arcSize=12;size=0.23;fillColor=#B3B3B3;" parent="1" vertex="1">
          <mxGeometry x="440" y="2625" width="100" height="50" as="geometry" />
        </mxCell>
        <mxCell id="iY9TOzmqVVtTMpKYVahV-137" style="edgeStyle=orthogonalEdgeStyle;rounded=0;orthogonalLoop=1;jettySize=auto;html=1;exitX=1;exitY=0.5;exitDx=0;exitDy=0;entryX=0;entryY=0.5;entryDx=0;entryDy=0;fillColor=#B3B3B3;" parent="1" source="iY9TOzmqVVtTMpKYVahV-123" target="iY9TOzmqVVtTMpKYVahV-129" edge="1">
          <mxGeometry relative="1" as="geometry" />
        </mxCell>
        <mxCell id="iY9TOzmqVVtTMpKYVahV-123" value="Voxellized Envelope" style="shape=parallelogram;html=1;strokeWidth=2;perimeter=parallelogramPerimeter;whiteSpace=wrap;rounded=1;arcSize=12;size=0.23;fillColor=#B3B3B3;" parent="1" vertex="1">
          <mxGeometry x="110" y="3020" width="100" height="40" as="geometry" />
        </mxCell>
        <mxCell id="iY9TOzmqVVtTMpKYVahV-136" style="edgeStyle=orthogonalEdgeStyle;rounded=0;orthogonalLoop=1;jettySize=auto;html=1;exitX=1;exitY=0.5;exitDx=0;exitDy=0;entryX=0;entryY=0.5;entryDx=0;entryDy=0;fillColor=#B3B3B3;" parent="1" source="iY9TOzmqVVtTMpKYVahV-124" target="iY9TOzmqVVtTMpKYVahV-129" edge="1">
          <mxGeometry relative="1" as="geometry" />
        </mxCell>
        <mxCell id="iY9TOzmqVVtTMpKYVahV-124" value="Immediate Context" style="shape=parallelogram;html=1;strokeWidth=2;perimeter=parallelogramPerimeter;whiteSpace=wrap;rounded=1;arcSize=12;size=0.23;fillColor=#B3B3B3;" parent="1" vertex="1">
          <mxGeometry x="110" y="2970" width="100" height="40" as="geometry" />
        </mxCell>
        <mxCell id="iY9TOzmqVVtTMpKYVahV-135" style="edgeStyle=orthogonalEdgeStyle;rounded=0;orthogonalLoop=1;jettySize=auto;html=1;exitX=1;exitY=0.5;exitDx=0;exitDy=0;entryX=0;entryY=0.5;entryDx=0;entryDy=0;fillColor=#B3B3B3;" parent="1" source="iY9TOzmqVVtTMpKYVahV-125" target="iY9TOzmqVVtTMpKYVahV-129" edge="1">
          <mxGeometry relative="1" as="geometry" />
        </mxCell>
        <mxCell id="iY9TOzmqVVtTMpKYVahV-125" value="Compulosory Envelope" style="shape=parallelogram;html=1;strokeWidth=2;perimeter=parallelogramPerimeter;whiteSpace=wrap;rounded=1;arcSize=12;size=0.23;fillColor=#B3B3B3;" parent="1" vertex="1">
          <mxGeometry x="110" y="2920" width="100" height="40" as="geometry" />
        </mxCell>
        <mxCell id="iY9TOzmqVVtTMpKYVahV-152" style="edgeStyle=orthogonalEdgeStyle;rounded=0;orthogonalLoop=1;jettySize=auto;html=1;exitX=1;exitY=0.5;exitDx=0;exitDy=0;fillColor=#B3B3B3;" parent="1" source="iY9TOzmqVVtTMpKYVahV-127" target="iY9TOzmqVVtTMpKYVahV-128" edge="1">
          <mxGeometry relative="1" as="geometry" />
        </mxCell>
        <mxCell id="iY9TOzmqVVtTMpKYVahV-127" value="Radius" style="shape=parallelogram;html=1;strokeWidth=2;perimeter=parallelogramPerimeter;whiteSpace=wrap;rounded=1;arcSize=12;size=0.23;fillColor=#B3B3B3;" parent="1" vertex="1">
          <mxGeometry x="110" y="2860" width="100" height="40" as="geometry" />
        </mxCell>
        <mxCell id="iY9TOzmqVVtTMpKYVahV-134" style="edgeStyle=orthogonalEdgeStyle;rounded=0;orthogonalLoop=1;jettySize=auto;html=1;exitX=1;exitY=0.5;exitDx=0;exitDy=0;entryX=0;entryY=0.5;entryDx=0;entryDy=0;fillColor=#B3B3B3;" parent="1" source="iY9TOzmqVVtTMpKYVahV-128" target="iY9TOzmqVVtTMpKYVahV-129" edge="1">
          <mxGeometry relative="1" as="geometry" />
        </mxCell>
        <mxCell id="iY9TOzmqVVtTMpKYVahV-128" value="Creat Points Representing the Sky" style="rounded=1;whiteSpace=wrap;html=1;absoluteArcSize=1;arcSize=14;strokeWidth=2;fillColor=#B3B3B3;" parent="1" vertex="1">
          <mxGeometry x="230" y="2855" width="100" height="50" as="geometry" />
        </mxCell>
        <mxCell id="iY9TOzmqVVtTMpKYVahV-139" style="edgeStyle=orthogonalEdgeStyle;rounded=0;orthogonalLoop=1;jettySize=auto;html=1;exitX=1;exitY=0.5;exitDx=0;exitDy=0;entryX=0;entryY=0.5;entryDx=0;entryDy=0;fillColor=#B3B3B3;" parent="1" source="iY9TOzmqVVtTMpKYVahV-129" target="iY9TOzmqVVtTMpKYVahV-130" edge="1">
          <mxGeometry relative="1" as="geometry" />
        </mxCell>
        <mxCell id="iY9TOzmqVVtTMpKYVahV-129" value="Calculate the Intersections Voxels and Skypoints" style="rounded=1;whiteSpace=wrap;html=1;absoluteArcSize=1;arcSize=14;strokeWidth=2;fillColor=#B3B3B3;" parent="1" vertex="1">
          <mxGeometry x="395" y="2960" width="100" height="60" as="geometry" />
        </mxCell>
        <mxCell id="qAXVTL88hk6OQoD5cI5v-68" style="edgeStyle=orthogonalEdgeStyle;rounded=0;orthogonalLoop=1;jettySize=auto;html=1;exitX=1;exitY=0.5;exitDx=0;exitDy=0;entryX=0;entryY=0.5;entryDx=0;entryDy=0;" edge="1" parent="1" source="iY9TOzmqVVtTMpKYVahV-130" target="iY9TOzmqVVtTMpKYVahV-133">
          <mxGeometry relative="1" as="geometry" />
        </mxCell>
        <mxCell id="iY9TOzmqVVtTMpKYVahV-130" value="Accumulate all the Intersections to the Context Mesh" style="rounded=1;whiteSpace=wrap;html=1;absoluteArcSize=1;arcSize=14;strokeWidth=2;fillColor=#B3B3B3;" parent="1" vertex="1">
          <mxGeometry x="525" y="2960" width="100" height="60" as="geometry" />
        </mxCell>
        <mxCell id="iY9TOzmqVVtTMpKYVahV-133" value="Skyview Factor" style="shape=parallelogram;html=1;strokeWidth=2;perimeter=parallelogramPerimeter;whiteSpace=wrap;rounded=1;arcSize=12;size=0.23;fillColor=#B3B3B3;" parent="1" vertex="1">
          <mxGeometry x="640" y="2965" width="100" height="50" as="geometry" />
        </mxCell>
        <mxCell id="iY9TOzmqVVtTMpKYVahV-153" value="Street Distance" style="rounded=1;whiteSpace=wrap;html=1;fillColor=#B3B3B3;" parent="1" vertex="1">
          <mxGeometry x="405" y="-610" width="120" height="60" as="geometry" />
        </mxCell>
        <mxCell id="iY9TOzmqVVtTMpKYVahV-156" value="" style="edgeStyle=orthogonalEdgeStyle;rounded=0;orthogonalLoop=1;jettySize=auto;html=1;fillColor=#B3B3B3;" parent="1" source="iY9TOzmqVVtTMpKYVahV-154" target="iY9TOzmqVVtTMpKYVahV-20" edge="1">
          <mxGeometry relative="1" as="geometry" />
        </mxCell>
        <mxCell id="iY9TOzmqVVtTMpKYVahV-154" value="Calculate and Select Closest Voxel" style="rounded=1;whiteSpace=wrap;html=1;absoluteArcSize=1;arcSize=14;strokeWidth=2;fillColor=#B3B3B3;" parent="1" vertex="1">
          <mxGeometry x="440" y="560" width="100" height="60" as="geometry" />
        </mxCell>
        <mxCell id="iY9TOzmqVVtTMpKYVahV-157" style="edgeStyle=orthogonalEdgeStyle;rounded=0;orthogonalLoop=1;jettySize=auto;html=1;exitX=1;exitY=0.5;exitDx=0;exitDy=0;entryX=0;entryY=0.5;entryDx=0;entryDy=0;fillColor=#B3B3B3;" parent="1" source="iY9TOzmqVVtTMpKYVahV-158" target="iY9TOzmqVVtTMpKYVahV-163" edge="1">
          <mxGeometry relative="1" as="geometry" />
        </mxCell>
        <mxCell id="iY9TOzmqVVtTMpKYVahV-158" value="Voxelized Envelope" style="shape=parallelogram;html=1;strokeWidth=2;perimeter=parallelogramPerimeter;whiteSpace=wrap;rounded=1;arcSize=12;size=0.23;fillColor=#B3B3B3;" parent="1" vertex="1">
          <mxGeometry x="170" y="1350" width="100" height="40" as="geometry" />
        </mxCell>
        <mxCell id="iY9TOzmqVVtTMpKYVahV-159" style="edgeStyle=orthogonalEdgeStyle;rounded=0;orthogonalLoop=1;jettySize=auto;html=1;exitX=1;exitY=0.5;exitDx=0;exitDy=0;entryX=0;entryY=0.5;entryDx=0;entryDy=0;fillColor=#B3B3B3;" parent="1" source="iY9TOzmqVVtTMpKYVahV-160" target="iY9TOzmqVVtTMpKYVahV-163" edge="1">
          <mxGeometry relative="1" as="geometry" />
        </mxCell>
        <mxCell id="iY9TOzmqVVtTMpKYVahV-160" value="Immediate Context" style="shape=parallelogram;html=1;strokeWidth=2;perimeter=parallelogramPerimeter;whiteSpace=wrap;rounded=1;arcSize=12;size=0.23;fillColor=#B3B3B3;" parent="1" vertex="1">
          <mxGeometry x="170" y="1300" width="100" height="40" as="geometry" />
        </mxCell>
        <mxCell id="qAXVTL88hk6OQoD5cI5v-50" style="edgeStyle=orthogonalEdgeStyle;rounded=0;orthogonalLoop=1;jettySize=auto;html=1;exitX=1;exitY=0.5;exitDx=0;exitDy=0;entryX=0;entryY=0.5;entryDx=0;entryDy=0;" edge="1" parent="1" source="iY9TOzmqVVtTMpKYVahV-162" target="iY9TOzmqVVtTMpKYVahV-163">
          <mxGeometry relative="1" as="geometry" />
        </mxCell>
        <mxCell id="iY9TOzmqVVtTMpKYVahV-162" value="Compulsory Envelope" style="shape=parallelogram;html=1;strokeWidth=2;perimeter=parallelogramPerimeter;whiteSpace=wrap;rounded=1;arcSize=12;size=0.23;fillColor=#B3B3B3;" parent="1" vertex="1">
          <mxGeometry x="170" y="1250" width="100" height="40" as="geometry" />
        </mxCell>
        <mxCell id="iY9TOzmqVVtTMpKYVahV-163" value="Calculate Penthouse Factor" style="rounded=1;whiteSpace=wrap;html=1;absoluteArcSize=1;arcSize=14;strokeWidth=2;fillColor=#B3B3B3;" parent="1" vertex="1">
          <mxGeometry x="310" y="1300" width="100" height="40" as="geometry" />
        </mxCell>
        <mxCell id="qAXVTL88hk6OQoD5cI5v-10" style="edgeStyle=orthogonalEdgeStyle;rounded=0;orthogonalLoop=1;jettySize=auto;html=1;exitX=1;exitY=0.5;exitDx=0;exitDy=0;entryX=0;entryY=0.5;entryDx=0;entryDy=0;" edge="1" parent="1" source="qAXVTL88hk6OQoD5cI5v-1" target="iY9TOzmqVVtTMpKYVahV-58">
          <mxGeometry relative="1" as="geometry" />
        </mxCell>
        <mxCell id="qAXVTL88hk6OQoD5cI5v-1" value="Calculating Actual Street Loudness" style="rounded=1;whiteSpace=wrap;html=1;absoluteArcSize=1;arcSize=14;strokeWidth=2;fillColor=#B3B3B3;" vertex="1" parent="1">
          <mxGeometry x="460" y="1630" width="100" height="50" as="geometry" />
        </mxCell>
        <mxCell id="qAXVTL88hk6OQoD5cI5v-9" style="edgeStyle=orthogonalEdgeStyle;rounded=0;orthogonalLoop=1;jettySize=auto;html=1;exitX=1;exitY=0.5;exitDx=0;exitDy=0;entryX=0;entryY=0.5;entryDx=0;entryDy=0;" edge="1" parent="1" source="qAXVTL88hk6OQoD5cI5v-3" target="iY9TOzmqVVtTMpKYVahV-58">
          <mxGeometry relative="1" as="geometry" />
        </mxCell>
        <mxCell id="qAXVTL88hk6OQoD5cI5v-3" value="Calculating Actual Football Loudness" style="rounded=1;whiteSpace=wrap;html=1;absoluteArcSize=1;arcSize=14;strokeWidth=2;fillColor=#B3B3B3;" vertex="1" parent="1">
          <mxGeometry x="460" y="1700" width="100" height="50" as="geometry" />
        </mxCell>
        <mxCell id="qAXVTL88hk6OQoD5cI5v-53" style="edgeStyle=orthogonalEdgeStyle;rounded=0;orthogonalLoop=1;jettySize=auto;html=1;exitX=0.5;exitY=0;exitDx=0;exitDy=0;entryX=0.5;entryY=1;entryDx=0;entryDy=0;" edge="1" parent="1" source="qAXVTL88hk6OQoD5cI5v-5" target="qAXVTL88hk6OQoD5cI5v-3">
          <mxGeometry relative="1" as="geometry" />
        </mxCell>
        <mxCell id="qAXVTL88hk6OQoD5cI5v-5" value="Football Points" style="shape=parallelogram;html=1;strokeWidth=2;perimeter=parallelogramPerimeter;whiteSpace=wrap;rounded=1;arcSize=12;size=0.23;fillColor=#B3B3B3;" vertex="1" parent="1">
          <mxGeometry x="460" y="1780" width="100" height="40" as="geometry" />
        </mxCell>
        <mxCell id="qAXVTL88hk6OQoD5cI5v-12" style="edgeStyle=orthogonalEdgeStyle;rounded=0;orthogonalLoop=1;jettySize=auto;html=1;exitX=0.5;exitY=1;exitDx=0;exitDy=0;entryX=0.5;entryY=0;entryDx=0;entryDy=0;" edge="1" parent="1" source="qAXVTL88hk6OQoD5cI5v-11" target="iY9TOzmqVVtTMpKYVahV-97">
          <mxGeometry relative="1" as="geometry" />
        </mxCell>
        <mxCell id="qAXVTL88hk6OQoD5cI5v-11" value="Voxelized Envelope&lt;br&gt;Highres" style="shape=parallelogram;html=1;strokeWidth=2;perimeter=parallelogramPerimeter;whiteSpace=wrap;rounded=1;arcSize=12;size=0.23;fillColor=#B3B3B3;" vertex="1" parent="1">
          <mxGeometry x="690" y="1930" width="100" height="50" as="geometry" />
        </mxCell>
        <mxCell id="qAXVTL88hk6OQoD5cI5v-13" style="edgeStyle=orthogonalEdgeStyle;rounded=0;orthogonalLoop=1;jettySize=auto;html=1;exitX=1;exitY=0.5;exitDx=0;exitDy=0;entryX=0;entryY=0.5;entryDx=0;entryDy=0;fillColor=#B3B3B3;" edge="1" parent="1" source="qAXVTL88hk6OQoD5cI5v-14" target="qAXVTL88hk6OQoD5cI5v-20">
          <mxGeometry relative="1" as="geometry" />
        </mxCell>
        <mxCell id="qAXVTL88hk6OQoD5cI5v-14" value="Voxelized Envelope" style="shape=parallelogram;html=1;strokeWidth=2;perimeter=parallelogramPerimeter;whiteSpace=wrap;rounded=1;arcSize=12;size=0.23;fillColor=#B3B3B3;" vertex="1" parent="1">
          <mxGeometry x="125" y="2370" width="100" height="40" as="geometry" />
        </mxCell>
        <mxCell id="qAXVTL88hk6OQoD5cI5v-15" style="edgeStyle=orthogonalEdgeStyle;rounded=0;orthogonalLoop=1;jettySize=auto;html=1;exitX=1;exitY=0.5;exitDx=0;exitDy=0;entryX=0;entryY=0.5;entryDx=0;entryDy=0;fillColor=#B3B3B3;" edge="1" parent="1" source="qAXVTL88hk6OQoD5cI5v-16" target="qAXVTL88hk6OQoD5cI5v-20">
          <mxGeometry relative="1" as="geometry" />
        </mxCell>
        <mxCell id="qAXVTL88hk6OQoD5cI5v-16" value="Immediate Context" style="shape=parallelogram;html=1;strokeWidth=2;perimeter=parallelogramPerimeter;whiteSpace=wrap;rounded=1;arcSize=12;size=0.23;fillColor=#B3B3B3;" vertex="1" parent="1">
          <mxGeometry x="125" y="2310" width="100" height="40" as="geometry" />
        </mxCell>
        <mxCell id="qAXVTL88hk6OQoD5cI5v-17" style="edgeStyle=orthogonalEdgeStyle;rounded=0;orthogonalLoop=1;jettySize=auto;html=1;exitX=1;exitY=0.5;exitDx=0;exitDy=0;entryX=0;entryY=0.5;entryDx=0;entryDy=0;fillColor=#B3B3B3;" edge="1" parent="1" source="qAXVTL88hk6OQoD5cI5v-18" target="qAXVTL88hk6OQoD5cI5v-20">
          <mxGeometry relative="1" as="geometry" />
        </mxCell>
        <mxCell id="qAXVTL88hk6OQoD5cI5v-18" value="Compulsory Envelope" style="shape=parallelogram;html=1;strokeWidth=2;perimeter=parallelogramPerimeter;whiteSpace=wrap;rounded=1;arcSize=12;size=0.23;fillColor=#B3B3B3;" vertex="1" parent="1">
          <mxGeometry x="125" y="2250" width="100" height="40" as="geometry" />
        </mxCell>
        <mxCell id="qAXVTL88hk6OQoD5cI5v-19" style="edgeStyle=orthogonalEdgeStyle;rounded=0;orthogonalLoop=1;jettySize=auto;html=1;exitX=1;exitY=0.5;exitDx=0;exitDy=0;entryX=0;entryY=0.5;entryDx=0;entryDy=0;fillColor=#B3B3B3;" edge="1" parent="1" source="qAXVTL88hk6OQoD5cI5v-20" target="qAXVTL88hk6OQoD5cI5v-22">
          <mxGeometry relative="1" as="geometry" />
        </mxCell>
        <mxCell id="qAXVTL88hk6OQoD5cI5v-20" value="Compute Shadow Vectors" style="rounded=1;whiteSpace=wrap;html=1;absoluteArcSize=1;arcSize=14;strokeWidth=2;fillColor=#B3B3B3;" vertex="1" parent="1">
          <mxGeometry x="270" y="2305" width="100" height="50" as="geometry" />
        </mxCell>
        <mxCell id="qAXVTL88hk6OQoD5cI5v-21" style="edgeStyle=orthogonalEdgeStyle;rounded=0;orthogonalLoop=1;jettySize=auto;html=1;exitX=1;exitY=0.5;exitDx=0;exitDy=0;entryX=0;entryY=0.5;entryDx=0;entryDy=0;fillColor=#B3B3B3;" edge="1" parent="1" source="qAXVTL88hk6OQoD5cI5v-22" target="qAXVTL88hk6OQoD5cI5v-24">
          <mxGeometry relative="1" as="geometry" />
        </mxCell>
        <mxCell id="qAXVTL88hk6OQoD5cI5v-22" value="Compute Intersections" style="rounded=1;whiteSpace=wrap;html=1;absoluteArcSize=1;arcSize=14;strokeWidth=2;fillColor=#B3B3B3;" vertex="1" parent="1">
          <mxGeometry x="400" y="2305" width="100" height="50" as="geometry" />
        </mxCell>
        <mxCell id="qAXVTL88hk6OQoD5cI5v-23" style="edgeStyle=orthogonalEdgeStyle;rounded=0;orthogonalLoop=1;jettySize=auto;html=1;exitX=1;exitY=0.5;exitDx=0;exitDy=0;entryX=0;entryY=0.5;entryDx=0;entryDy=0;fillColor=#B3B3B3;" edge="1" parent="1" source="qAXVTL88hk6OQoD5cI5v-24" target="qAXVTL88hk6OQoD5cI5v-26">
          <mxGeometry relative="1" as="geometry" />
        </mxCell>
        <mxCell id="qAXVTL88hk6OQoD5cI5v-24" value="Aggregate Simulations Results" style="rounded=1;whiteSpace=wrap;html=1;absoluteArcSize=1;arcSize=14;strokeWidth=2;fillColor=#B3B3B3;" vertex="1" parent="1">
          <mxGeometry x="530" y="2305" width="100" height="50" as="geometry" />
        </mxCell>
        <mxCell id="qAXVTL88hk6OQoD5cI5v-63" style="edgeStyle=orthogonalEdgeStyle;rounded=0;orthogonalLoop=1;jettySize=auto;html=1;exitX=1;exitY=0.5;exitDx=0;exitDy=0;entryX=0;entryY=0.5;entryDx=0;entryDy=0;" edge="1" parent="1" source="qAXVTL88hk6OQoD5cI5v-26" target="qAXVTL88hk6OQoD5cI5v-27">
          <mxGeometry relative="1" as="geometry" />
        </mxCell>
        <mxCell id="qAXVTL88hk6OQoD5cI5v-26" value="Interpolate shadow in High Resolution" style="rounded=1;whiteSpace=wrap;html=1;absoluteArcSize=1;arcSize=14;strokeWidth=2;fillColor=#B3B3B3;" vertex="1" parent="1">
          <mxGeometry x="660" y="2305" width="100" height="50" as="geometry" />
        </mxCell>
        <mxCell id="qAXVTL88hk6OQoD5cI5v-27" value="Shadowing" style="shape=parallelogram;html=1;strokeWidth=2;perimeter=parallelogramPerimeter;whiteSpace=wrap;rounded=1;arcSize=12;size=0.23;fillColor=#B3B3B3;" vertex="1" parent="1">
          <mxGeometry x="780" y="2305" width="100" height="50" as="geometry" />
        </mxCell>
        <mxCell id="qAXVTL88hk6OQoD5cI5v-28" style="edgeStyle=orthogonalEdgeStyle;rounded=0;orthogonalLoop=1;jettySize=auto;html=1;exitX=0.5;exitY=1;exitDx=0;exitDy=0;entryX=0.5;entryY=0;entryDx=0;entryDy=0;" edge="1" parent="1" source="qAXVTL88hk6OQoD5cI5v-29" target="qAXVTL88hk6OQoD5cI5v-26">
          <mxGeometry relative="1" as="geometry" />
        </mxCell>
        <mxCell id="qAXVTL88hk6OQoD5cI5v-29" value="Voxelized Envelope Highres" style="shape=parallelogram;html=1;strokeWidth=2;perimeter=parallelogramPerimeter;whiteSpace=wrap;rounded=1;arcSize=12;size=0.23;fillColor=#B3B3B3;" vertex="1" parent="1">
          <mxGeometry x="660" y="2240" width="100" height="40" as="geometry" />
        </mxCell>
        <mxCell id="qAXVTL88hk6OQoD5cI5v-31" style="edgeStyle=orthogonalEdgeStyle;rounded=0;orthogonalLoop=1;jettySize=auto;html=1;exitX=0.5;exitY=1;exitDx=0;exitDy=0;entryX=0.5;entryY=0;entryDx=0;entryDy=0;" edge="1" parent="1" source="qAXVTL88hk6OQoD5cI5v-30" target="iY9TOzmqVVtTMpKYVahV-115">
          <mxGeometry relative="1" as="geometry" />
        </mxCell>
        <mxCell id="qAXVTL88hk6OQoD5cI5v-30" value="Shadowing treshold" style="shape=parallelogram;html=1;strokeWidth=2;perimeter=parallelogramPerimeter;whiteSpace=wrap;rounded=1;arcSize=12;size=0.23;fillColor=#B3B3B3;" vertex="1" parent="1">
          <mxGeometry x="330" y="2560" width="100" height="40" as="geometry" />
        </mxCell>
        <mxCell id="qAXVTL88hk6OQoD5cI5v-73" style="edgeStyle=orthogonalEdgeStyle;rounded=0;orthogonalLoop=1;jettySize=auto;html=1;exitX=1;exitY=0.5;exitDx=0;exitDy=0;entryX=0;entryY=0.5;entryDx=0;entryDy=0;" edge="1" parent="1" source="qAXVTL88hk6OQoD5cI5v-33" target="qAXVTL88hk6OQoD5cI5v-37">
          <mxGeometry relative="1" as="geometry" />
        </mxCell>
        <mxCell id="qAXVTL88hk6OQoD5cI5v-33" value="Immediate Context" style="shape=parallelogram;html=1;strokeWidth=2;perimeter=parallelogramPerimeter;whiteSpace=wrap;rounded=1;arcSize=12;size=0.23;fillColor=#B3B3B3;" vertex="1" parent="1">
          <mxGeometry x="110" y="-370" width="100" height="40" as="geometry" />
        </mxCell>
        <mxCell id="qAXVTL88hk6OQoD5cI5v-72" style="edgeStyle=orthogonalEdgeStyle;rounded=0;orthogonalLoop=1;jettySize=auto;html=1;exitX=1;exitY=0.5;exitDx=0;exitDy=0;entryX=0;entryY=0.5;entryDx=0;entryDy=0;" edge="1" parent="1" source="qAXVTL88hk6OQoD5cI5v-34" target="qAXVTL88hk6OQoD5cI5v-37">
          <mxGeometry relative="1" as="geometry" />
        </mxCell>
        <mxCell id="qAXVTL88hk6OQoD5cI5v-34" value="Compulsory Envelope" style="shape=parallelogram;html=1;strokeWidth=2;perimeter=parallelogramPerimeter;whiteSpace=wrap;rounded=1;arcSize=12;size=0.23;fillColor=#B3B3B3;" vertex="1" parent="1">
          <mxGeometry x="110" y="-420" width="100" height="40" as="geometry" />
        </mxCell>
        <mxCell id="qAXVTL88hk6OQoD5cI5v-74" style="edgeStyle=orthogonalEdgeStyle;rounded=0;orthogonalLoop=1;jettySize=auto;html=1;exitX=1;exitY=0.5;exitDx=0;exitDy=0;entryX=0;entryY=0.5;entryDx=0;entryDy=0;" edge="1" parent="1" source="qAXVTL88hk6OQoD5cI5v-35" target="qAXVTL88hk6OQoD5cI5v-37">
          <mxGeometry relative="1" as="geometry" />
        </mxCell>
        <mxCell id="qAXVTL88hk6OQoD5cI5v-35" value="Voxelized Envelope" style="shape=parallelogram;html=1;strokeWidth=2;perimeter=parallelogramPerimeter;whiteSpace=wrap;rounded=1;arcSize=12;size=0.23;fillColor=#B3B3B3;" vertex="1" parent="1">
          <mxGeometry x="110" y="-320" width="100" height="40" as="geometry" />
        </mxCell>
        <mxCell id="qAXVTL88hk6OQoD5cI5v-71" style="edgeStyle=orthogonalEdgeStyle;rounded=0;orthogonalLoop=1;jettySize=auto;html=1;exitX=1;exitY=0.5;exitDx=0;exitDy=0;entryX=0;entryY=0.5;entryDx=0;entryDy=0;" edge="1" parent="1" source="qAXVTL88hk6OQoD5cI5v-36" target="qAXVTL88hk6OQoD5cI5v-37">
          <mxGeometry relative="1" as="geometry" />
        </mxCell>
        <mxCell id="qAXVTL88hk6OQoD5cI5v-36" value="Streetpoints" style="shape=parallelogram;html=1;strokeWidth=2;perimeter=parallelogramPerimeter;whiteSpace=wrap;rounded=1;arcSize=12;size=0.23;fillColor=#B3B3B3;" vertex="1" parent="1">
          <mxGeometry x="110" y="-470" width="100" height="40" as="geometry" />
        </mxCell>
        <mxCell id="qAXVTL88hk6OQoD5cI5v-60" style="edgeStyle=orthogonalEdgeStyle;rounded=0;orthogonalLoop=1;jettySize=auto;html=1;exitX=1;exitY=0.5;exitDx=0;exitDy=0;entryX=0;entryY=0.5;entryDx=0;entryDy=0;" edge="1" parent="1" source="qAXVTL88hk6OQoD5cI5v-37" target="qAXVTL88hk6OQoD5cI5v-38">
          <mxGeometry relative="1" as="geometry" />
        </mxCell>
        <mxCell id="qAXVTL88hk6OQoD5cI5v-37" value="Calculate Euclidean Distance" style="rounded=1;whiteSpace=wrap;html=1;absoluteArcSize=1;arcSize=14;strokeWidth=2;fillColor=#B3B3B3;" vertex="1" parent="1">
          <mxGeometry x="250" y="-410" width="100" height="60" as="geometry" />
        </mxCell>
        <mxCell id="qAXVTL88hk6OQoD5cI5v-61" style="edgeStyle=orthogonalEdgeStyle;rounded=0;orthogonalLoop=1;jettySize=auto;html=1;exitX=1;exitY=0.5;exitDx=0;exitDy=0;entryX=0;entryY=0.5;entryDx=0;entryDy=0;" edge="1" parent="1" source="qAXVTL88hk6OQoD5cI5v-38" target="qAXVTL88hk6OQoD5cI5v-39">
          <mxGeometry relative="1" as="geometry" />
        </mxCell>
        <mxCell id="qAXVTL88hk6OQoD5cI5v-38" value="Calculate and Select Closest Voxel" style="rounded=1;whiteSpace=wrap;html=1;absoluteArcSize=1;arcSize=14;strokeWidth=2;fillColor=#B3B3B3;" vertex="1" parent="1">
          <mxGeometry x="380" y="-410" width="100" height="60" as="geometry" />
        </mxCell>
        <mxCell id="qAXVTL88hk6OQoD5cI5v-62" style="edgeStyle=orthogonalEdgeStyle;rounded=0;orthogonalLoop=1;jettySize=auto;html=1;exitX=1;exitY=0.5;exitDx=0;exitDy=0;" edge="1" parent="1" source="qAXVTL88hk6OQoD5cI5v-39" target="qAXVTL88hk6OQoD5cI5v-43">
          <mxGeometry relative="1" as="geometry" />
        </mxCell>
        <mxCell id="qAXVTL88hk6OQoD5cI5v-39" value="Intializing the Manifold Distance Lattice" style="rounded=1;whiteSpace=wrap;html=1;absoluteArcSize=1;arcSize=14;strokeWidth=2;fillColor=#B3B3B3;" vertex="1" parent="1">
          <mxGeometry x="510" y="-410" width="100" height="60" as="geometry" />
        </mxCell>
        <mxCell id="qAXVTL88hk6OQoD5cI5v-40" style="edgeStyle=orthogonalEdgeStyle;rounded=0;orthogonalLoop=1;jettySize=auto;html=1;exitX=0.5;exitY=0;exitDx=0;exitDy=0;entryX=0.5;entryY=1;entryDx=0;entryDy=0;fillColor=#B3B3B3;" edge="1" parent="1" source="qAXVTL88hk6OQoD5cI5v-41" target="qAXVTL88hk6OQoD5cI5v-39">
          <mxGeometry relative="1" as="geometry" />
        </mxCell>
        <mxCell id="qAXVTL88hk6OQoD5cI5v-41" value="Von &lt;br&gt;Neumann &lt;br&gt;Stensil" style="shape=parallelogram;html=1;strokeWidth=2;perimeter=parallelogramPerimeter;whiteSpace=wrap;rounded=1;arcSize=12;size=0.23;fillColor=#B3B3B3;" vertex="1" parent="1">
          <mxGeometry x="510" y="-320" width="100" height="50" as="geometry" />
        </mxCell>
        <mxCell id="qAXVTL88hk6OQoD5cI5v-69" style="edgeStyle=orthogonalEdgeStyle;rounded=0;orthogonalLoop=1;jettySize=auto;html=1;exitX=1;exitY=0.5;exitDx=0;exitDy=0;entryX=0;entryY=0.5;entryDx=0;entryDy=0;" edge="1" parent="1" source="qAXVTL88hk6OQoD5cI5v-43" target="qAXVTL88hk6OQoD5cI5v-44">
          <mxGeometry relative="1" as="geometry" />
        </mxCell>
        <mxCell id="qAXVTL88hk6OQoD5cI5v-43" value="Breadth-First Traversal" style="rounded=1;whiteSpace=wrap;html=1;absoluteArcSize=1;arcSize=14;strokeWidth=2;fillColor=#B3B3B3;" vertex="1" parent="1">
          <mxGeometry x="640" y="-410" width="100" height="60" as="geometry" />
        </mxCell>
        <mxCell id="qAXVTL88hk6OQoD5cI5v-44" value="Football Field" style="shape=parallelogram;html=1;strokeWidth=2;perimeter=parallelogramPerimeter;whiteSpace=wrap;rounded=1;arcSize=12;size=0.23;fillColor=#B3B3B3;" vertex="1" parent="1">
          <mxGeometry x="760" y="-400" width="100" height="40" as="geometry" />
        </mxCell>
      </root>
    </mxGraphModel>
  </diagram>
</mxfile>
